<?xml version="1.0" standalone="no"?>
<!DOCTYPE svg PUBLIC "-//W3C//DTD SVG 20010904//EN"
 "http://www.w3.org/TR/2001/REC-SVG-20010904/DTD/svg10.dtd">
<svg version="1.0" xmlns="http://www.w3.org/2000/svg"
 width="50.000000pt" height="50.000000pt" viewBox="0 0 50.000000 50.000000"
 preserveAspectRatio="xMidYMid meet">

<g transform="translate(0.000000,50.000000) scale(0.100000,-0.100000)"
fill="#000000" stroke="none">
<path d="M130 415 c0 -8 5 -15 10 -15 6 0 10 7 10 15 0 8 -4 15 -10 15 -5 0
-10 -7 -10 -15z"/>
<path d="M205 421 c-6 -11 9 -23 19 -14 9 9 7 23 -3 23 -6 0 -12 -4 -16 -9z"/>
<path d="M280 415 c0 -8 5 -15 10 -15 6 0 10 7 10 15 0 8 -4 15 -10 15 -5 0
-10 -7 -10 -15z"/>
<path d="M350 414 c0 -9 5 -14 12 -12 18 6 21 28 4 28 -9 0 -16 -7 -16 -16z"/>
<path d="M140 311 c0 -10 148 -25 194 -19 16 1 31 9 34 16 3 9 -24 12 -112 12
-64 0 -116 -4 -116 -9z"/>
<path d="M137 253 c-19 -18 3 -23 113 -23 100 0 120 3 120 15 0 12 -19 15
-113 15 -63 0 -117 -3 -120 -7z"/>
<path d="M132 183 c3 -16 18 -18 121 -21 112 -3 117 -2 117 18 0 19 -6 20
-121 20 -109 0 -120 -2 -117 -17z"/>
<path d="M299 146 c-6 -6 -66 -16 -136 -23 -116 -11 -64 -24 85 -21 144 3 147
3 150 26 3 20 -1 22 -46 22 -27 0 -51 -2 -53 -4z"/>
<path d="M100 55 c0 -13 23 -15 150 -15 127 0 150 2 150 15 0 13 -23 15 -150
15 -127 0 -150 -2 -150 -15z"/>
</g>
</svg>
